<svg xmlns="http://www.w3.org/2000/svg" width="600" height="800" viewBox="0 0 600 800" fill="none">
  <!-- 主背景渐变 -->
  <defs>
    <linearGradient id="mainGradient" x1="0%" y1="0%" x2="100%" y2="100%">
      <stop offset="0%" stop-color="#fff8e1"/>
      <stop offset="50%" stop-color="#ffe0b2"/>
      <stop offset="100%" stop-color="#ffcc80"/>
    </linearGradient>
    
    <!-- 装饰性圆形渐变 -->
    <radialGradient id="circleGradient1" cx="50%" cy="50%" r="50%">
      <stop offset="0%" stop-color="#ffecb3" stop-opacity="0.6"/>
      <stop offset="100%" stop-color="#ffecb3" stop-opacity="0"/>
    </radialGradient>
    
    <radialGradient id="circleGradient2" cx="50%" cy="50%" r="50%">
      <stop offset="0%" stop-color="#fff3e0" stop-opacity="0.4"/>
      <stop offset="100%" stop-color="#fff3e0" stop-opacity="0"/>
    </radialGradient>
    
    <!-- 云朵渐变 -->
    <linearGradient id="cloudGradient" x1="0%" y1="0%" x2="100%" y2="100%">
      <stop offset="0%" stop-color="#ffffff" stop-opacity="0.8"/>
      <stop offset="100%" stop-color="#f5f5f5" stop-opacity="0.6"/>
    </linearGradient>
  </defs>
  
  <!-- 主背景 -->
  <rect width="600" height="800" fill="url(#mainGradient)"/>
  
  <!-- 装饰性圆形 -->
  <circle cx="100" cy="150" r="80" fill="url(#circleGradient1)"/>
  <circle cx="500" cy="250" r="60" fill="url(#circleGradient2)"/>
  <circle cx="150" cy="650" r="70" fill="url(#circleGradient1)"/>
  <circle cx="450" cy="700" r="50" fill="url(#circleGradient2)"/>
  
  <!-- 云朵装饰 -->
  <g fill="url(#cloudGradient)">
    <!-- 左上角云朵 -->
    <ellipse cx="80" cy="100" rx="25" ry="15"/>
    <ellipse cx="110" cy="95" rx="20" ry="12"/>
    <ellipse cx="95" cy="85" rx="15" ry="10"/>
    
    <!-- 右上角云朵 -->
    <ellipse cx="520" cy="120" rx="20" ry="12"/>
    <ellipse cx="540" cy="115" rx="15" ry="10"/>
    <ellipse cx="530" cy="105" rx="12" ry="8"/>
    
    <!-- 底部云朵 -->
    <ellipse cx="120" cy="720" rx="30" ry="18"/>
    <ellipse cx="150" cy="715" rx="25" ry="15"/>
    <ellipse cx="135" cy="705" rx="20" ry="12"/>
  </g>
  
  <!-- 装饰性小点 -->
  <g fill="#ffab40" opacity="0.3">
    <circle cx="200" cy="200" r="3"/>
    <circle cx="400" cy="180" r="2"/>
    <circle cx="300" cy="300" r="2.5"/>
    <circle cx="180" cy="400" r="2"/>
    <circle cx="420" cy="450" r="3"/>
    <circle cx="250" cy="550" r="2.5"/>
    <circle cx="380" cy="600" r="2"/>
    <circle cx="320" cy="700" r="3"/>
  </g>
  
  <!-- 装饰性线条 -->
  <g stroke="#ffab40" stroke-width="1" opacity="0.2" fill="none">
    <path d="M 50 250 Q 150 200 250 250"/>
    <path d="M 350 150 Q 450 100 550 150"/>
    <path d="M 100 500 Q 200 450 300 500"/>
    <path d="M 400 650 Q 500 600 550 650"/>
  </g>
</svg>

