<svg xmlns="http://www.w3.org/2000/svg" width="600" height="800" viewBox="0 0 600 800" fill="none">
  <!-- 渐变定义 -->
  <defs>
    <!-- 主背景渐变 -->
    <linearGradient id="mainGradient" x1="0%" y1="0%" x2="100%" y2="100%">
      <stop offset="0%" stop-color="#e3f2fd"/>
      <stop offset="50%" stop-color="#bbdefb"/>
      <stop offset="100%" stop-color="#90caf9"/>
    </linearGradient>
    
    <!-- 星星渐变 -->
    <radialGradient id="starGradient" cx="50%" cy="50%" r="50%">
      <stop offset="0%" stop-color="#fff9c4"/>
      <stop offset="100%" stop-color="#fff59d" stop-opacity="0.8"/>
    </radialGradient>
    
    <!-- 气球渐变 -->
    <radialGradient id="balloonGradient1" cx="30%" cy="30%" r="70%">
      <stop offset="0%" stop-color="#ffcdd2"/>
      <stop offset="100%" stop-color="#ef9a9a"/>
    </radialGradient>
    
    <radialGradient id="balloonGradient2" cx="30%" cy="30%" r="70%">
      <stop offset="0%" stop-color="#c8e6c9"/>
      <stop offset="100%" stop-color="#a5d6a7"/>
    </radialGradient>
    
    <radialGradient id="balloonGradient3" cx="30%" cy="30%" r="70%">
      <stop offset="0%" stop-color="#fff9c4"/>
      <stop offset="100%" stop-color="#fff59d"/>
    </radialGradient>
    
    <!-- 云朵渐变 -->
    <linearGradient id="cloudGradient" x1="0%" y1="0%" x2="100%" y2="100%">
      <stop offset="0%" stop-color="#ffffff" stop-opacity="0.9"/>
      <stop offset="100%" stop-color="#f5f5f5" stop-opacity="0.7"/>
    </linearGradient>
  </defs>
  
  <!-- 主背景 -->
  <rect width="600" height="800" fill="url(#mainGradient)"/>
  
  <!-- 装饰性云朵 -->
  <g fill="url(#cloudGradient)">
    <!-- 左上角大云朵 -->
    <ellipse cx="120" cy="120" rx="40" ry="25"/>
    <ellipse cx="150" cy="110" rx="35" ry="20"/>
    <ellipse cx="130" cy="95" rx="25" ry="15"/>
    
    <!-- 右上角云朵 -->
    <ellipse cx="480" cy="100" rx="30" ry="18"/>
    <ellipse cx="500" cy="95" rx="25" ry="15"/>
    <ellipse cx="490" cy="85" rx="20" ry="12"/>
    
    <!-- 底部云朵 -->
    <ellipse cx="150" cy="680" rx="35" ry="20"/>
    <ellipse cx="180" cy="675" rx="30" ry="18"/>
    <ellipse cx="165" cy="665" rx="25" ry="15"/>
  </g>
  
  <!-- 星星装饰 -->
  <g fill="url(#starGradient)">
    <!-- 五角星函数 -->
    <g transform="translate(80, 200)">
      <path d="M 0 -15 L 4 -4 L 15 0 L 4 4 L 0 15 L -4 4 L -15 0 L -4 -4 Z"/>
    </g>
    <g transform="translate(520, 180)">
      <path d="M 0 -12 L 3 -3 L 12 0 L 3 3 L 0 12 L -3 3 L -12 0 L -3 -3 Z"/>
    </g>
    <g transform="translate(450, 350)">
      <path d="M 0 -10 L 2.5 -2.5 L 10 0 L 2.5 2.5 L 0 10 L -2.5 2.5 L -10 0 L -2.5 -2.5 Z"/>
    </g>
    <g transform="translate(120, 500)">
      <path d="M 0 -8 L 2 -2 L 8 0 L 2 2 L 0 8 L -2 2 L -8 0 L -2 -2 Z"/>
    </g>
  </g>
  
  <!-- 气球装饰 -->
  <g>
    <!-- 红色气球 -->
    <ellipse cx="200" cy="300" rx="25" ry="35" fill="url(#balloonGradient1)"/>
    <line x1="200" y1="335" x2="200" y2="380" stroke="#8d6e63" stroke-width="2"/>
    
    <!-- 绿色气球 -->
    <ellipse cx="400" cy="280" rx="20" ry="30" fill="url(#balloonGradient2)"/>
    <line x1="400" y1="310" x2="400" y2="350" stroke="#8d6e63" stroke-width="2"/>
    
    <!-- 黄色气球 -->
    <ellipse cx="300" cy="320" rx="22" ry="32" fill="url(#balloonGradient3)"/>
    <line x1="300" y1="352" x2="300" y2="390" stroke="#8d6e63" stroke-width="2"/>
  </g>
  
  <!-- 装饰性小圆点 -->
  <g fill="#64b5f6" opacity="0.4">
    <circle cx="150" cy="150" r="4"/>
    <circle cx="450" cy="140" r="3"/>
    <circle cx="250" cy="250" r="3.5"/>
    <circle cx="350" cy="200" r="2.5"/>
    <circle cx="180" cy="400" r="3"/>
    <circle cx="420" cy="450" r="2.5"/>
    <circle cx="280" cy="550" r="3"/>
    <circle cx="380" cy="600" r="2.5"/>
    <circle cx="320" cy="700" r="3.5"/>
  </g>
  
  <!-- 装饰性曲线 -->
  <g stroke="#64b5f6" stroke-width="2" opacity="0.3" fill="none">
    <path d="M 50 300 Q 150 250 250 300"/>
    <path d="M 350 200 Q 450 150 550 200"/>
    <path d="M 100 600 Q 200 550 300 600"/>
    <path d="M 400 650 Q 500 600 550 650"/>
  </g>
  
  <!-- 小花朵装饰 -->
  <g fill="#f8bbd9" opacity="0.6">
    <!-- 花朵1 -->
    <g transform="translate(100, 450)">
      <circle cx="0" cy="0" r="8"/>
      <circle cx="12" cy="0" r="6"/>
      <circle cx="-12" cy="0" r="6"/>
      <circle cx="0" cy="12" r="6"/>
      <circle cx="0" cy="-12" r="6"/>
    </g>
    
    <!-- 花朵2 -->
    <g transform="translate(500, 500)">
      <circle cx="0" cy="0" r="6"/>
      <circle cx="10" cy="0" r="4"/>
      <circle cx="-10" cy="0" r="4"/>
      <circle cx="0" cy="10" r="4"/>
      <circle cx="0" cy="-10" r="4"/>
    </g>
  </g>
</svg>

